<?xml version="1.0" encoding="utf-8"?>
<!-- Generator: Adobe Illustrator 25.3.1, SVG Export Plug-In . SVG Version: 6.00 Build 0)  -->
<svg version="1.1" id="Capa_1" xmlns="http://www.w3.org/2000/svg" xmlns:xlink="http://www.w3.org/1999/xlink" x="0px" y="0px"
	 viewBox="0 0 32 32" style="enable-background:new 0 0 32 32;" xml:space="preserve">
<style type="text/css">
	.st0{fill:#3090CF;}
	.st1{opacity:0.5;}
	.st2{fill:#3C3C3B;}
	.st3{fill:#898280;}
	.st4{fill:#FFFFFF;}
</style>
<circle class="st0" cx="15.8" cy="16.08" r="15"/>
<g>
	<path class="st4" d="M7.1,8.52h8.03l-0.33,2.63H9.68l-0.39,3.07h4.22l-0.29,2.6H8.96l-0.57,4.77H5.5L7.1,8.52z"/>
	<path class="st4" d="M20.56,21.75c-1.58,0-2.87-0.47-3.87-1.4s-1.49-2.29-1.49-4.07c0-2.23,0.64-4.12,1.92-5.64
		c1.28-1.53,2.94-2.29,4.96-2.29c0.93,0,1.8,0.2,2.6,0.61c0.8,0.41,1.42,0.99,1.88,1.75l-2.28,1.73c-0.58-0.88-1.36-1.33-2.36-1.33
		c-1.06,0-1.92,0.5-2.61,1.5c-0.68,1-1.02,2.17-1.02,3.51c0,0.95,0.22,1.67,0.65,2.16s1.04,0.75,1.81,0.75
		c0.7,0,1.38-0.21,2.03-0.63l0.24-1.62h-2.17l0.31-2.47h4.99l-0.68,5.85c-0.6,0.47-1.34,0.85-2.23,1.14
		C22.37,21.61,21.47,21.75,20.56,21.75z"/>
</g>
</svg>
