<?xml version="1.0" encoding="utf-8"?>
<!-- Generator: Adobe Illustrator 25.3.1, SVG Export Plug-In . SVG Version: 6.00 Build 0)  -->
<svg version="1.1" id="Capa_1" xmlns="http://www.w3.org/2000/svg" xmlns:xlink="http://www.w3.org/1999/xlink" x="0px" y="0px"
	 viewBox="0 0 32 32" style="enable-background:new 0 0 32 32;" xml:space="preserve">
<style type="text/css">
	.st0{fill:#3090CF;}
	.st1{opacity:0.5;}
	.st2{fill:#3C3C3B;}
	.st3{fill:#898280;}
	.st4{fill:#FFFFFF;}
</style>
<path class="st4" d="M15.78,1.59C7.6,1.59,1,8.21,1,16.37c0,8.17,6.6,14.81,14.78,14.81c8.18,0,14.81-6.64,14.81-14.81
	C30.59,8.21,23.96,1.59,15.78,1.59z M12.08,23.55H9.36V13.18h2.72V23.55z M12.08,11.77H9.36V9.23h2.72V11.77z M24.33,23.55h-2.76
	v-5.3c0-1.09-0.06-1.83-0.17-2.15c-0.11-0.34-0.31-0.59-0.57-0.79c-0.26-0.17-0.6-0.25-0.96-0.25c-0.47,0-0.89,0.13-1.27,0.38
	c-0.38,0.25-0.64,0.61-0.77,1.06c-0.13,0.39-0.21,1.19-0.21,2.36v4.69h-2.74V13.18h2.55v1.53c0.89-1.17,2.05-1.78,3.41-1.78
	c0.6,0,1.17,0.13,1.64,0.34c0.51,0.23,0.89,0.5,1.15,0.83c0.24,0.36,0.43,0.72,0.53,1.14c0.09,0.44,0.17,1.04,0.17,1.87V23.55z"/>
</svg>
