<?xml version="1.0" encoding="utf-8"?>
<!-- Generator: Adobe Illustrator 25.3.1, SVG Export Plug-In . SVG Version: 6.00 Build 0)  -->
<svg version="1.1" id="Capa_1" xmlns="http://www.w3.org/2000/svg" xmlns:xlink="http://www.w3.org/1999/xlink" x="0px" y="0px"
	 viewBox="0 0 32 32" style="enable-background:new 0 0 32 32;" xml:space="preserve">
<style type="text/css">
	.st0{fill:#3090CF;}
	.st1{opacity:0.5;}
	.st2{fill:#3C3C3B;}
	.st3{fill:#898280;}
	.st4{fill:#FFFFFF;}
</style>
<g>
	<path class="st4" d="M12.13,14.66c0.41-0.03,0.73-0.18,0.94-0.41c0.24-0.21,0.36-0.53,0.36-0.9c0-0.35-0.09-0.63-0.28-0.88
		c-0.21-0.22-0.51-0.36-0.9-0.4c-0.25,0-0.9-0.03-1.99-0.03H8.9v2.71h1.54C11.34,14.74,11.9,14.69,12.13,14.66z"/>
	<path class="st4" d="M21.58,14.82c-0.49,0-0.9,0.15-1.2,0.53c-0.32,0.34-0.49,0.82-0.49,1.42h3.34c-0.02-0.62-0.19-1.13-0.51-1.45
		C22.41,14.98,22.03,14.82,21.58,14.82z"/>
	<path class="st4" d="M16,1.2C7.84,1.2,1.2,7.82,1.2,16.02C1.2,24.18,7.84,30.8,16,30.8s14.8-6.62,14.8-14.78
		C30.8,7.82,24.16,1.2,16,1.2z M19.14,10.41h4.92v1.97h-4.92V10.41z M15.9,19.89c-0.24,0.49-0.58,0.9-1.01,1.18
		c-0.41,0.32-0.94,0.51-1.56,0.57c-0.37,0.03-1.33,0.06-2.83,0.06H6.55V10.11h4.63c0.92,0,1.59,0.03,2.06,0.1
		c0.45,0.09,0.86,0.25,1.2,0.5c0.35,0.21,0.65,0.57,0.9,0.97c0.23,0.38,0.36,0.84,0.36,1.36c0,0.54-0.15,1.03-0.45,1.46
		c-0.28,0.47-0.68,0.82-1.18,1.04c0.71,0.2,1.24,0.56,1.63,1.04c0.37,0.49,0.56,1.1,0.56,1.76C16.27,18.87,16.14,19.37,15.9,19.89z
		 M20.4,19.69c0.35,0.37,0.77,0.54,1.29,0.54c0.34,0,0.64-0.09,0.88-0.28c0.23-0.18,0.39-0.47,0.53-0.91l2.21,0.37
		c-0.28,0.82-0.71,1.44-1.35,1.85c-0.6,0.44-1.37,0.64-2.31,0.64c-1.46,0-2.55-0.48-3.25-1.42c-0.54-0.79-0.83-1.72-0.83-2.93
		c0-1.38,0.38-2.47,1.09-3.26c0.73-0.79,1.65-1.2,2.76-1.2c1.25,0,2.25,0.45,2.98,1.27c0.71,0.82,1.07,2.11,1.03,3.79h-5.57
		C19.89,18.81,20.06,19.32,20.4,19.69z"/>
	<path class="st4" d="M12.86,16.8c-0.32-0.08-1.01-0.16-2.08-0.16H8.9v3.11h2.16c0.84,0,1.39-0.04,1.59-0.07
		c0.38-0.05,0.66-0.21,0.88-0.47c0.19-0.25,0.32-0.56,0.32-1c0-0.31-0.09-0.63-0.24-0.88C13.42,17.12,13.18,16.93,12.86,16.8z"/>
</g>
</svg>
